# xmcd
#
# Track frame offsets:
#	150
#	13101
#	26247
#	42630
#	55950
#	71702
#	89615
#	104623
#	121180
#	138584
#	157790
#	173897
#	190548
#	203289
#	216115
#	232623
#	251137
#	266536
#	281936
#
# Disc length: 4018 seconds
# Revision: 0
# Processed by: cddbd v1.5.2PL0 Copyright (c) Steve Scherf et al.
# Submitted via: dBpowerAMP V12.0
#
DISCID=130fb013
DTITLE=Various Artist - Country Radio November 2006
DYEAR=2006
DGENRE=Country
TTITLE0=Aaron Lines - Seeing Things
TTITLE1=George Strait - It Just Comes Natural
TTITLE2=Brad Johner - I'd Rather Be Lucky
TTITLE3=Emerson Drive - Countrified
TTITLE4=Wreckers The - My Oh My
TTITLE5=Keith Anderson - Podunk
TTITLE6=George Canyon - Drinkin Thinkin
TTITLE7=Trace Adkins - Ladies Love Country Boys
TTITLE8=Ashley Monroe With Ronnie Dunn - I Don't Want To
TTITLE9=Darryl Worley - I Just Came Back From A War
TTITLE10=Billy Currington - Good Directions
TTITLE11=Kellie Pickler - Red High Heels
TTITLE12=Prairie Oyster - Too Bad For Me
TTITLE13=Johnny Reid - Gypsy In my Soul
TTITLE14=Clay Walker - Fore She Was Mama
TTITLE15=Pat Green - Dixxie Lullaby
TTITLE16=Mark Wills - Take It All Out On Me
TTITLE17=Steve Holy - Come On Rain
TTITLE18=Faith Hill - Stealing Kisses
EXTD=
EXTT0=
EXTT1=
EXTT2=
EXTT3=
EXTT4=
EXTT5=
EXTT6=
EXTT7=
EXTT8=
EXTT9=
EXTT10=
EXTT11=
EXTT12=
EXTT13=
EXTT14=
EXTT15=
EXTT16=
EXTT17=
EXTT18=
PLAYORDER=
